<?xml version="1.0" encoding="iso-8859-1"?>
<!-- Generator: Adobe Illustrator 16.0.0, SVG Export Plug-In . SVG Version: 6.00 Build 0)  -->
<!DOCTYPE svg PUBLIC "-//W3C//DTD SVG 1.1//EN" "http://www.w3.org/Graphics/SVG/1.1/DTD/svg11.dtd">
<svg version="1.1" id="Capa_1" xmlns="http://www.w3.org/2000/svg" xmlns:xlink="http://www.w3.org/1999/xlink" x="0px" y="0px"
	 width="233.514px" height="233.514px" viewBox="0 0 233.514 233.514" style="enable-background:new 0 0 233.514 233.514;"
	 xml:space="preserve">
<g>
	<g>
		<g>
			<path d="M123.931,0.618c-1.224,0-2.447,0.612-3.061,1.836C60.894-6.115,8.263,41.009,0.917,100.374
				c-7.956,62.424,36.72,122.399,99.144,131.58c59.978,9.181,123.013-32.437,132.192-93.636
				C242.047,75.894,193.698-5.502,123.931,0.618z M220.015,146.886c-14.075,52.632-74.052,85.681-126.072,73.439
				c-51.408-11.628-87.516-58.752-85.68-111.384C10.71,47.742,62.119,6.125,120.87,5.514c0.612,0.612,1.225,1.224,3.061,1.224
				C189.414,9.186,236.539,85.686,220.015,146.886z"/>
			<path d="M123.931,29.994c-1.224,0-1.836,0-2.447,0.612C18.667,15.306,5.203,194.01,108.63,211.146
				C223.687,230.117,227.358,34.277,123.931,29.994z M96.391,196.457c-34.272-12.852-53.856-47.735-51.408-83.843
				c1.224-18.36,9.18-39.168,21.42-52.632C81.09,44.069,99.451,39.786,119.647,37.95c0.611,1.224,1.836,1.836,3.672,2.448
				c47.124,4.284,67.319,59.976,63.647,101.592C183.906,185.441,138.007,212.369,96.391,196.457z"/>
		</g>
	</g>
</g>
<g>
</g>
<g>
</g>
<g>
</g>
<g>
</g>
<g>
</g>
<g>
</g>
<g>
</g>
<g>
</g>
<g>
</g>
<g>
</g>
<g>
</g>
<g>
</g>
<g>
</g>
<g>
</g>
<g>
</g>
</svg>
